<svg xmlns="http://www.w3.org/2000/svg" version="1.1" xlink="http://www.w3.org/1999/xlink" xmlns:svgjs="http://svgjs.com/svgjs" width="100%" height="100%" preserveAspectRatio="xMidYMid meet" viewBox="-4.76837158203125e-7 -5.960464477539063e-8 300 24.653051376342773" overflow="visible">
  <defs id="SvgjsDefs82517">
    <linearGradient id="SvgjsLinearGradiento9NWjKZUI-" gradientUnits="userSpaceOnUse" x1="10.009876243570103" y1="84.98938604295373" x2="82.03373592431934" y2="12.96552636220446">
      <stop id="SvgjsStop82520" stop-color="#43da75" offset="0.05"></stop>
      <stop id="SvgjsStop82521" stop-color="#1a843d" offset="0.95"></stop>
    </linearGradient>
  </defs>
  <g id="SvgjsG82518" transform="scale(0.6939676171883743)" opacity="1">
    <g id="SvgjsG82522" class="sPAaRDiqZ" transform="translate(-7.940931528836377, -0.7373068306284029) scale(0.37771866323176595)" light-content="false" non-strokable="false" fill="url(#SvgjsLinearGradiento9NWjKZUI-)">
      <path d="M45.062 80.154S9.322 63.122 25 35.98c0 0 13.902-24.925 25.197-34.028.185 1.529-3.972 12.273 4.141 19.169 3.371 2.865 36.916 29.199-1.858 59.033 0 0-4.721 13.146-5.9 14.831-1.5 2.145-9.143.486-8.429-1.18.505-1.179 8.262-12.95 6.911-13.651z"></path>
    </g>
    <g id="SvgjsG82523" class="text" transform="translate(234.59682729048427, 23.883668765054704) scale(1)" light-content="false" fill="#262626">
      <path d="M-186.96 -7.16L-186.96 -2.8C-187.79 -2.32 -188.75 -2.08 -189.84 -2.08C-190.81 -2.08 -191.68 -2.29 -192.45 -2.72C-193.22 -3.15 -193.82 -3.73 -194.25 -4.48C-194.68 -5.23 -194.9 -6.07 -194.9 -7C-194.9 -7.96 -194.68 -8.81 -194.25 -9.56C-193.82 -10.31 -193.22 -10.89 -192.45 -11.3C-191.68 -11.71 -190.81 -11.92 -189.82 -11.92C-188.31 -11.92 -187.03 -11.39 -185.96 -10.32L-184.32 -11.92C-184.97 -12.67 -185.78 -13.23 -186.74 -13.62C-187.7 -14.01 -188.77 -14.2 -189.94 -14.2C-191.38 -14.2 -192.68 -13.89 -193.83 -13.27C-194.98 -12.65 -195.89 -11.79 -196.54 -10.7C-197.19 -9.61 -197.52 -8.37 -197.52 -7C-197.52 -5.63 -197.19 -4.39 -196.54 -3.3C-195.89 -2.21 -194.99 -1.35 -193.84 -0.73C-192.69 -0.11 -191.41 0.2 -189.98 0.2C-188.97 0.2 -187.98 0.05 -187.02 -0.26C-186.06 -0.57 -185.22 -1.01 -184.5 -1.58L-184.5 -7.16Z M-169.92 0L-167.12 0L-170.34 -4.6C-169.38 -4.97 -168.64 -5.54 -168.13 -6.3C-167.62 -7.06 -167.36 -7.97 -167.36 -9.02C-167.36 -10.05 -167.6 -10.93 -168.08 -11.68C-168.56 -12.43 -169.25 -13 -170.15 -13.4C-171.05 -13.8 -172.11 -14 -173.32 -14L-179.08 -14L-179.08 0L-176.48 0L-176.48 -4.08L-173.32 -4.08C-173.08 -4.08 -172.9 -4.09 -172.78 -4.1ZM-170.86 -11.08C-170.27 -10.6 -169.98 -9.91 -169.98 -9.02C-169.98 -8.13 -170.27 -7.44 -170.86 -6.95C-171.45 -6.46 -172.31 -6.22 -173.44 -6.22L-176.48 -6.22L-176.48 -11.8L-173.44 -11.8C-172.31 -11.8 -171.45 -11.56 -170.86 -11.08Z M-151.96 -2.18L-159.86 -2.18L-159.86 -6.04L-153.1 -6.04L-153.1 -8.18L-159.86 -8.18L-159.86 -11.82L-152.24 -11.82L-152.24 -14L-162.46 -14L-162.46 0L-151.96 0Z M-136.56 -2.18L-144.46 -2.18L-144.46 -6.04L-137.7 -6.04L-137.7 -8.18L-144.46 -8.18L-144.46 -11.82L-136.84 -11.82L-136.84 -14L-147.06 -14L-147.06 0L-136.56 0Z M-119.22 -14L-121.8 -14L-121.8 -4.52L-129.52 -14L-131.66 -14L-131.66 0L-129.08 0L-129.08 -9.48L-121.36 0L-119.22 0Z M-113.46 -14L-113.46 0L-103.54 0L-103.54 -2.2L-110.86 -2.2L-110.86 -14Z M-88.98 -2.18L-96.88 -2.18L-96.88 -6.04L-90.12 -6.04L-90.12 -8.18L-96.88 -8.18L-96.88 -11.82L-89.26 -11.82L-89.26 -14L-99.48 -14L-99.48 0L-88.98 0Z M-75 -3.24L-73.6 0L-70.88 0L-77.2 -14L-79.76 -14L-86.06 0L-83.38 0L-82 -3.24ZM-75.86 -5.28L-81.12 -5.28L-78.5 -11.4Z M-64.5 -11.82L-56.88 -11.82L-56.88 -14L-67.1 -14L-67.1 0L-64.5 0L-64.5 -5.36L-57.74 -5.36L-57.74 -7.56L-64.5 -7.56Z M-51.21 -0.26C-50.2 0.05 -49.16 0.2 -48.08 0.2C-46.85 0.2 -45.81 0.01 -44.96 -0.36C-44.11 -0.73 -43.47 -1.23 -43.05 -1.86C-42.63 -2.49 -42.42 -3.19 -42.42 -3.96C-42.42 -4.87 -42.66 -5.59 -43.13 -6.12C-43.6 -6.65 -44.17 -7.05 -44.84 -7.31C-45.51 -7.57 -46.36 -7.82 -47.4 -8.06C-48.16 -8.25 -48.76 -8.41 -49.2 -8.56C-49.64 -8.71 -50 -8.91 -50.29 -9.16C-50.58 -9.41 -50.72 -9.74 -50.72 -10.14C-50.72 -10.71 -50.47 -11.17 -49.97 -11.52C-49.47 -11.87 -48.71 -12.04 -47.68 -12.04C-47.05 -12.04 -46.41 -11.95 -45.74 -11.76C-45.07 -11.57 -44.43 -11.3 -43.82 -10.94L-43 -12.96C-43.6 -13.36 -44.31 -13.67 -45.14 -13.88C-45.97 -14.09 -46.81 -14.2 -47.66 -14.2C-48.89 -14.2 -49.92 -14.01 -50.77 -13.64C-51.62 -13.27 -52.25 -12.76 -52.67 -12.13C-53.09 -11.5 -53.3 -10.79 -53.3 -10.02C-53.3 -9.1 -53.06 -8.37 -52.59 -7.83C-52.12 -7.29 -51.55 -6.89 -50.89 -6.64C-50.23 -6.39 -49.37 -6.13 -48.3 -5.88C-47.54 -5.69 -46.94 -5.53 -46.5 -5.38C-46.06 -5.23 -45.7 -5.03 -45.41 -4.77C-45.12 -4.51 -44.98 -4.18 -44.98 -3.78C-44.98 -3.23 -45.24 -2.79 -45.75 -2.46C-46.26 -2.13 -47.04 -1.96 -48.08 -1.96C-48.92 -1.96 -49.76 -2.1 -50.59 -2.39C-51.42 -2.68 -52.13 -3.05 -52.7 -3.5L-53.6 -1.48C-53.01 -0.97 -52.22 -0.57 -51.21 -0.26Z M-35.2 -11.8L-35.2 0L-32.6 0L-32.6 -11.8L-27.96 -11.8L-27.96 -14L-39.84 -14L-39.84 -11.8Z M-22.76 -1.43C-21.68 -0.34 -20.17 0.2 -18.24 0.2C-16.31 0.2 -14.8 -0.34 -13.73 -1.43C-12.66 -2.52 -12.12 -4.07 -12.12 -6.1L-12.12 -14L-14.68 -14L-14.68 -6.2C-14.68 -3.45 -15.86 -2.08 -18.22 -2.08C-20.59 -2.08 -21.78 -3.45 -21.78 -6.2L-21.78 -14L-24.38 -14L-24.38 -6.1C-24.38 -4.07 -23.84 -2.52 -22.76 -1.43Z M-6.48 -14L-6.48 0L-0.36 0C1.13 0 2.46 -0.29 3.62 -0.87C4.78 -1.45 5.68 -2.27 6.32 -3.33C6.96 -4.39 7.28 -5.61 7.28 -7C7.28 -8.39 6.96 -9.61 6.32 -10.67C5.68 -11.73 4.78 -12.55 3.62 -13.13C2.46 -13.71 1.13 -14 -0.36 -14ZM-0.48 -2.2L-3.88 -2.2L-3.88 -11.8L-0.48 -11.8C0.55 -11.8 1.45 -11.6 2.23 -11.21C3.01 -10.82 3.61 -10.26 4.03 -9.53C4.45 -8.8 4.66 -7.96 4.66 -7C4.66 -6.04 4.45 -5.2 4.03 -4.47C3.61 -3.74 3.01 -3.18 2.23 -2.79C1.45 -2.4 0.55 -2.2 -0.48 -2.2Z M12.04 -14L12.04 0L14.64 0L14.64 -14Z M23.1 -0.73C24.25 -0.11 25.53 0.2 26.96 0.2C28.39 0.2 29.67 -0.11 30.82 -0.73C31.97 -1.35 32.87 -2.21 33.52 -3.3C34.17 -4.39 34.5 -5.63 34.5 -7C34.5 -8.37 34.17 -9.61 33.52 -10.7C32.87 -11.79 31.97 -12.65 30.82 -13.27C29.67 -13.89 28.39 -14.2 26.96 -14.2C25.53 -14.2 24.25 -13.89 23.1 -13.27C21.95 -12.65 21.05 -11.79 20.4 -10.69C19.75 -9.59 19.42 -8.36 19.42 -7C19.42 -5.64 19.75 -4.41 20.4 -3.31C21.05 -2.21 21.95 -1.35 23.1 -0.73ZM29.48 -2.71C28.73 -2.29 27.89 -2.08 26.96 -2.08C26.03 -2.08 25.19 -2.29 24.44 -2.71C23.69 -3.13 23.11 -3.72 22.68 -4.47C22.25 -5.22 22.04 -6.07 22.04 -7C22.04 -7.93 22.25 -8.78 22.68 -9.53C23.11 -10.28 23.69 -10.87 24.44 -11.29C25.19 -11.71 26.03 -11.92 26.96 -11.92C27.89 -11.92 28.73 -11.71 29.48 -11.29C30.23 -10.87 30.81 -10.28 31.24 -9.53C31.67 -8.78 31.88 -7.93 31.88 -7C31.88 -6.07 31.67 -5.22 31.24 -4.47C30.81 -3.72 30.23 -3.13 29.48 -2.71Z M48.14 -3.24L49.54 0L52.26 0L45.94 -14L43.38 -14L37.08 0L39.76 0L41.14 -3.24ZM47.28 -5.28L42.02 -5.28L44.64 -11.4Z M64.97 -13.4C64.07 -13.8 63.01 -14 61.8 -14L56.04 -14L56.04 0L58.64 0L58.64 -4.04L61.8 -4.04C63.01 -4.04 64.07 -4.24 64.97 -4.64C65.87 -5.04 66.56 -5.62 67.04 -6.37C67.52 -7.12 67.76 -8.01 67.76 -9.02C67.76 -10.05 67.52 -10.93 67.04 -11.68C66.56 -12.43 65.87 -13 64.97 -13.4ZM64.26 -6.96C63.67 -6.48 62.81 -6.24 61.68 -6.24L58.64 -6.24L58.64 -11.8L61.68 -11.8C62.81 -11.8 63.67 -11.56 64.26 -11.08C64.85 -10.6 65.14 -9.91 65.14 -9.02C65.14 -8.13 64.85 -7.44 64.26 -6.96Z M80.74 -3.24L82.14 0L84.86 0L78.54 -14L75.98 -14L69.68 0L72.36 0L73.74 -3.24ZM79.88 -5.28L74.62 -5.28L77.24 -11.4Z M97.8 0L100.6 0L97.38 -4.6C98.34 -4.97 99.08 -5.54 99.59 -6.3C100.1 -7.06 100.36 -7.97 100.36 -9.02C100.36 -10.05 100.12 -10.93 99.64 -11.68C99.16 -12.43 98.47 -13 97.57 -13.4C96.67 -13.8 95.61 -14 94.4 -14L88.64 -14L88.64 0L91.24 0L91.24 -4.08L94.4 -4.08C94.64 -4.08 94.82 -4.09 94.94 -4.1ZM96.86 -11.08C97.45 -10.6 97.74 -9.91 97.74 -9.02C97.74 -8.13 97.45 -7.44 96.86 -6.95C96.27 -6.46 95.41 -6.22 94.28 -6.22L91.24 -6.22L91.24 -11.8L94.28 -11.8C95.41 -11.8 96.27 -11.56 96.86 -11.08Z M107.9 -11.8L107.9 0L110.5 0L110.5 -11.8L115.14 -11.8L115.14 -14L103.26 -14L103.26 -11.8Z M131.96 0L134.42 0L134.4 -14L132.26 -14L126.8 -4.72L121.24 -14L119.1 -14L119.1 0L121.58 0L121.58 -9.16L126.18 -1.6L127.34 -1.6L131.94 -9.28Z M150.7 -2.18L142.8 -2.18L142.8 -6.04L149.56 -6.04L149.56 -8.18L142.8 -8.18L142.8 -11.82L150.42 -11.82L150.42 -14L140.2 -14L140.2 0L150.7 0Z M168.04 -14L165.46 -14L165.46 -4.52L157.74 -14L155.6 -14L155.6 0L158.18 0L158.18 -9.48L165.9 0L168.04 0Z M176.64 -11.8L176.64 0L179.24 0L179.24 -11.8L183.88 -11.8L183.88 -14L172 -14L172 -11.8Z M188.91 -0.26C189.92 0.05 190.96 0.2 192.04 0.2C193.27 0.2 194.31 0.01 195.16 -0.36C196.01 -0.73 196.65 -1.23 197.07 -1.86C197.49 -2.49 197.7 -3.19 197.7 -3.96C197.7 -4.87 197.46 -5.59 196.99 -6.12C196.52 -6.65 195.95 -7.05 195.28 -7.31C194.61 -7.57 193.76 -7.82 192.72 -8.06C191.96 -8.25 191.36 -8.41 190.92 -8.56C190.48 -8.71 190.12 -8.91 189.83 -9.16C189.54 -9.41 189.4 -9.74 189.4 -10.14C189.4 -10.71 189.65 -11.17 190.15 -11.52C190.65 -11.87 191.41 -12.04 192.44 -12.04C193.07 -12.04 193.71 -11.95 194.38 -11.76C195.05 -11.57 195.69 -11.3 196.3 -10.94L197.12 -12.96C196.52 -13.36 195.81 -13.67 194.98 -13.88C194.15 -14.09 193.31 -14.2 192.46 -14.2C191.23 -14.2 190.2 -14.01 189.35 -13.64C188.5 -13.27 187.87 -12.76 187.45 -12.13C187.03 -11.5 186.82 -10.79 186.82 -10.02C186.82 -9.1 187.06 -8.37 187.53 -7.83C188 -7.29 188.57 -6.89 189.23 -6.64C189.89 -6.39 190.75 -6.13 191.82 -5.88C192.58 -5.69 193.18 -5.53 193.62 -5.38C194.06 -5.23 194.42 -5.03 194.71 -4.77C195 -4.51 195.14 -4.18 195.14 -3.78C195.14 -3.23 194.88 -2.79 194.37 -2.46C193.86 -2.13 193.08 -1.96 192.04 -1.96C191.2 -1.96 190.36 -2.1 189.53 -2.39C188.7 -2.68 187.99 -3.05 187.42 -3.5L186.52 -1.48C187.11 -0.97 187.9 -0.57 188.91 -0.26Z"></path>
    </g>
  </g>
</svg>